<?xml version="1.0" encoding="utf-8" standalone="no"?>
<!DOCTYPE svg PUBLIC "-//W3C//DTD SVG 1.1//EN"
  "http://www.w3.org/Graphics/SVG/1.1/DTD/svg11.dtd">
<svg xmlns:xlink="http://www.w3.org/1999/xlink" width="619.2pt" height="360pt" viewBox="0 0 619.2 360" xmlns="http://www.w3.org/2000/svg" version="1.1">
 <metadata>
  <rdf:RDF xmlns:dc="http://purl.org/dc/elements/1.1/" xmlns:cc="http://creativecommons.org/ns#" xmlns:rdf="http://www.w3.org/1999/02/22-rdf-syntax-ns#">
   <cc:Work>
    <dc:type rdf:resource="http://purl.org/dc/dcmitype/StillImage"/>
    <dc:date>2026-03-11T19:05:06.453075</dc:date>
    <dc:format>image/svg+xml</dc:format>
    <dc:creator>
     <cc:Agent>
      <dc:title>Matplotlib v3.9.4, https://matplotlib.org/</dc:title>
     </cc:Agent>
    </dc:creator>
   </cc:Work>
  </rdf:RDF>
 </metadata>
 <defs>
  <style type="text/css">*{stroke-linejoin: round; stroke-linecap: butt}</style>
 </defs>
 <g id="figure_1">
  <g id="patch_1">
   <path d="M 0 360 
L 619.2 360 
L 619.2 0 
L 0 0 
z
" style="fill: #ffffff"/>
  </g>
  <g id="axes_1">
   <g id="patch_2">
    <path d="M 47.178365 326.621635 
L 616.19976 326.621635 
L 616.19976 18.118365 
L 47.178365 18.118365 
z
" style="fill: #ffffff"/>
   </g>
   <g id="matplotlib.axis_1">
    <g id="xtick_1">
     <g id="line2d_1">
      <path d="M 47.728369 326.621635 
L 47.728369 18.118365 
" clip-path="url(#pb9169fc0b7)" style="fill: none; stroke: #b0b0b0; stroke-opacity: 0.28; stroke-width: 0.8; stroke-linecap: square"/>
     </g>
     <g id="line2d_2">
      <defs>
       <path id="md6722dd0c5" d="M 0 0 
L 0 3.5 
" style="stroke: #000000; stroke-width: 0.8"/>
      </defs>
      <g>
       <use xlink:href="#md6722dd0c5" x="47.728369" y="326.621635" style="stroke: #000000; stroke-width: 0.8"/>
      </g>
     </g>
     <g id="text_1">
      <!-- $\mathdefault{10^{0}}$ -->
      <g transform="translate(38.928369 341.220073) scale(0.1 -0.1)">
       <defs>
        <path id="DejaVuSans-31" d="M 794 531 
L 1825 531 
L 1825 4091 
L 703 3866 
L 703 4441 
L 1819 4666 
L 2450 4666 
L 2450 531 
L 3481 531 
L 3481 0 
L 794 0 
L 794 531 
z
" transform="scale(0.015625)"/>
        <path id="DejaVuSans-30" d="M 2034 4250 
Q 1547 4250 1301 3770 
Q 1056 3291 1056 2328 
Q 1056 1369 1301 889 
Q 1547 409 2034 409 
Q 2525 409 2770 889 
Q 3016 1369 3016 2328 
Q 3016 3291 2770 3770 
Q 2525 4250 2034 4250 
z
M 2034 4750 
Q 2819 4750 3233 4129 
Q 3647 3509 3647 2328 
Q 3647 1150 3233 529 
Q 2819 -91 2034 -91 
Q 1250 -91 836 529 
Q 422 1150 422 2328 
Q 422 3509 836 4129 
Q 1250 4750 2034 4750 
z
" transform="scale(0.015625)"/>
       </defs>
       <use xlink:href="#DejaVuSans-31" transform="translate(0 0.765625)"/>
       <use xlink:href="#DejaVuSans-30" transform="translate(63.623047 0.765625)"/>
       <use xlink:href="#DejaVuSans-30" transform="translate(128.203125 39.046875) scale(0.7)"/>
      </g>
     </g>
    </g>
    <g id="xtick_2">
     <g id="line2d_3">
      <path d="M 464.787764 326.621635 
L 464.787764 18.118365 
" clip-path="url(#pb9169fc0b7)" style="fill: none; stroke: #b0b0b0; stroke-opacity: 0.28; stroke-width: 0.8; stroke-linecap: square"/>
     </g>
     <g id="line2d_4">
      <g>
       <use xlink:href="#md6722dd0c5" x="464.787764" y="326.621635" style="stroke: #000000; stroke-width: 0.8"/>
      </g>
     </g>
     <g id="text_2">
      <!-- $\mathdefault{10^{1}}$ -->
      <g transform="translate(455.987764 341.220073) scale(0.1 -0.1)">
       <use xlink:href="#DejaVuSans-31" transform="translate(0 0.684375)"/>
       <use xlink:href="#DejaVuSans-30" transform="translate(63.623047 0.684375)"/>
       <use xlink:href="#DejaVuSans-31" transform="translate(128.203125 38.965625) scale(0.7)"/>
      </g>
     </g>
    </g>
    <g id="xtick_3">
     <g id="line2d_5">
      <path d="M 173.275757 326.621635 
L 173.275757 18.118365 
" clip-path="url(#pb9169fc0b7)" style="fill: none; stroke: #b0b0b0; stroke-opacity: 0.28; stroke-width: 0.8; stroke-linecap: square"/>
     </g>
     <g id="line2d_6">
      <defs>
       <path id="m70bc413e5a" d="M 0 0 
L 0 2 
" style="stroke: #000000; stroke-width: 0.6"/>
      </defs>
      <g>
       <use xlink:href="#m70bc413e5a" x="173.275757" y="326.621635" style="stroke: #000000; stroke-width: 0.6"/>
      </g>
     </g>
    </g>
    <g id="xtick_4">
     <g id="line2d_7">
      <path d="M 246.716271 326.621635 
L 246.716271 18.118365 
" clip-path="url(#pb9169fc0b7)" style="fill: none; stroke: #b0b0b0; stroke-opacity: 0.28; stroke-width: 0.8; stroke-linecap: square"/>
     </g>
     <g id="line2d_8">
      <g>
       <use xlink:href="#m70bc413e5a" x="246.716271" y="326.621635" style="stroke: #000000; stroke-width: 0.6"/>
      </g>
     </g>
    </g>
    <g id="xtick_5">
     <g id="line2d_9">
      <path d="M 298.823145 326.621635 
L 298.823145 18.118365 
" clip-path="url(#pb9169fc0b7)" style="fill: none; stroke: #b0b0b0; stroke-opacity: 0.28; stroke-width: 0.8; stroke-linecap: square"/>
     </g>
     <g id="line2d_10">
      <g>
       <use xlink:href="#m70bc413e5a" x="298.823145" y="326.621635" style="stroke: #000000; stroke-width: 0.6"/>
      </g>
     </g>
    </g>
    <g id="xtick_6">
     <g id="line2d_11">
      <path d="M 339.240376 326.621635 
L 339.240376 18.118365 
" clip-path="url(#pb9169fc0b7)" style="fill: none; stroke: #b0b0b0; stroke-opacity: 0.28; stroke-width: 0.8; stroke-linecap: square"/>
     </g>
     <g id="line2d_12">
      <g>
       <use xlink:href="#m70bc413e5a" x="339.240376" y="326.621635" style="stroke: #000000; stroke-width: 0.6"/>
      </g>
     </g>
    </g>
    <g id="xtick_7">
     <g id="line2d_13">
      <path d="M 372.263658 326.621635 
L 372.263658 18.118365 
" clip-path="url(#pb9169fc0b7)" style="fill: none; stroke: #b0b0b0; stroke-opacity: 0.28; stroke-width: 0.8; stroke-linecap: square"/>
     </g>
     <g id="line2d_14">
      <g>
       <use xlink:href="#m70bc413e5a" x="372.263658" y="326.621635" style="stroke: #000000; stroke-width: 0.6"/>
      </g>
     </g>
    </g>
    <g id="xtick_8">
     <g id="line2d_15">
      <path d="M 400.184446 326.621635 
L 400.184446 18.118365 
" clip-path="url(#pb9169fc0b7)" style="fill: none; stroke: #b0b0b0; stroke-opacity: 0.28; stroke-width: 0.8; stroke-linecap: square"/>
     </g>
     <g id="line2d_16">
      <g>
       <use xlink:href="#m70bc413e5a" x="400.184446" y="326.621635" style="stroke: #000000; stroke-width: 0.6"/>
      </g>
     </g>
    </g>
    <g id="xtick_9">
     <g id="line2d_17">
      <path d="M 424.370532 326.621635 
L 424.370532 18.118365 
" clip-path="url(#pb9169fc0b7)" style="fill: none; stroke: #b0b0b0; stroke-opacity: 0.28; stroke-width: 0.8; stroke-linecap: square"/>
     </g>
     <g id="line2d_18">
      <g>
       <use xlink:href="#m70bc413e5a" x="424.370532" y="326.621635" style="stroke: #000000; stroke-width: 0.6"/>
      </g>
     </g>
    </g>
    <g id="xtick_10">
     <g id="line2d_19">
      <path d="M 445.704172 326.621635 
L 445.704172 18.118365 
" clip-path="url(#pb9169fc0b7)" style="fill: none; stroke: #b0b0b0; stroke-opacity: 0.28; stroke-width: 0.8; stroke-linecap: square"/>
     </g>
     <g id="line2d_20">
      <g>
       <use xlink:href="#m70bc413e5a" x="445.704172" y="326.621635" style="stroke: #000000; stroke-width: 0.6"/>
      </g>
     </g>
    </g>
    <g id="xtick_11">
     <g id="line2d_21">
      <path d="M 590.335151 326.621635 
L 590.335151 18.118365 
" clip-path="url(#pb9169fc0b7)" style="fill: none; stroke: #b0b0b0; stroke-opacity: 0.28; stroke-width: 0.8; stroke-linecap: square"/>
     </g>
     <g id="line2d_22">
      <g>
       <use xlink:href="#m70bc413e5a" x="590.335151" y="326.621635" style="stroke: #000000; stroke-width: 0.6"/>
      </g>
     </g>
    </g>
    <g id="text_3">
     <!-- separation / target radius, $r/R$ -->
     <g transform="translate(257.539062 354.89976) scale(0.1 -0.1)">
      <defs>
       <path id="DejaVuSans-73" d="M 2834 3397 
L 2834 2853 
Q 2591 2978 2328 3040 
Q 2066 3103 1784 3103 
Q 1356 3103 1142 2972 
Q 928 2841 928 2578 
Q 928 2378 1081 2264 
Q 1234 2150 1697 2047 
L 1894 2003 
Q 2506 1872 2764 1633 
Q 3022 1394 3022 966 
Q 3022 478 2636 193 
Q 2250 -91 1575 -91 
Q 1294 -91 989 -36 
Q 684 19 347 128 
L 347 722 
Q 666 556 975 473 
Q 1284 391 1588 391 
Q 1994 391 2212 530 
Q 2431 669 2431 922 
Q 2431 1156 2273 1281 
Q 2116 1406 1581 1522 
L 1381 1569 
Q 847 1681 609 1914 
Q 372 2147 372 2553 
Q 372 3047 722 3315 
Q 1072 3584 1716 3584 
Q 2034 3584 2315 3537 
Q 2597 3491 2834 3397 
z
" transform="scale(0.015625)"/>
       <path id="DejaVuSans-65" d="M 3597 1894 
L 3597 1613 
L 953 1613 
Q 991 1019 1311 708 
Q 1631 397 2203 397 
Q 2534 397 2845 478 
Q 3156 559 3463 722 
L 3463 178 
Q 3153 47 2828 -22 
Q 2503 -91 2169 -91 
Q 1331 -91 842 396 
Q 353 884 353 1716 
Q 353 2575 817 3079 
Q 1281 3584 2069 3584 
Q 2775 3584 3186 3129 
Q 3597 2675 3597 1894 
z
M 3022 2063 
Q 3016 2534 2758 2815 
Q 2500 3097 2075 3097 
Q 1594 3097 1305 2825 
Q 1016 2553 972 2059 
L 3022 2063 
z
" transform="scale(0.015625)"/>
       <path id="DejaVuSans-70" d="M 1159 525 
L 1159 -1331 
L 581 -1331 
L 581 3500 
L 1159 3500 
L 1159 2969 
Q 1341 3281 1617 3432 
Q 1894 3584 2278 3584 
Q 2916 3584 3314 3078 
Q 3713 2572 3713 1747 
Q 3713 922 3314 415 
Q 2916 -91 2278 -91 
Q 1894 -91 1617 61 
Q 1341 213 1159 525 
z
M 3116 1747 
Q 3116 2381 2855 2742 
Q 2594 3103 2138 3103 
Q 1681 3103 1420 2742 
Q 1159 2381 1159 1747 
Q 1159 1113 1420 752 
Q 1681 391 2138 391 
Q 2594 391 2855 752 
Q 3116 1113 3116 1747 
z
" transform="scale(0.015625)"/>
       <path id="DejaVuSans-61" d="M 2194 1759 
Q 1497 1759 1228 1600 
Q 959 1441 959 1056 
Q 959 750 1161 570 
Q 1363 391 1709 391 
Q 2188 391 2477 730 
Q 2766 1069 2766 1631 
L 2766 1759 
L 2194 1759 
z
M 3341 1997 
L 3341 0 
L 2766 0 
L 2766 531 
Q 2569 213 2275 61 
Q 1981 -91 1556 -91 
Q 1019 -91 701 211 
Q 384 513 384 1019 
Q 384 1609 779 1909 
Q 1175 2209 1959 2209 
L 2766 2209 
L 2766 2266 
Q 2766 2663 2505 2880 
Q 2244 3097 1772 3097 
Q 1472 3097 1187 3025 
Q 903 2953 641 2809 
L 641 3341 
Q 956 3463 1253 3523 
Q 1550 3584 1831 3584 
Q 2591 3584 2966 3190 
Q 3341 2797 3341 1997 
z
" transform="scale(0.015625)"/>
       <path id="DejaVuSans-72" d="M 2631 2963 
Q 2534 3019 2420 3045 
Q 2306 3072 2169 3072 
Q 1681 3072 1420 2755 
Q 1159 2438 1159 1844 
L 1159 0 
L 581 0 
L 581 3500 
L 1159 3500 
L 1159 2956 
Q 1341 3275 1631 3429 
Q 1922 3584 2338 3584 
Q 2397 3584 2469 3576 
Q 2541 3569 2628 3553 
L 2631 2963 
z
" transform="scale(0.015625)"/>
       <path id="DejaVuSans-74" d="M 1172 4494 
L 1172 3500 
L 2356 3500 
L 2356 3053 
L 1172 3053 
L 1172 1153 
Q 1172 725 1289 603 
Q 1406 481 1766 481 
L 2356 481 
L 2356 0 
L 1766 0 
Q 1100 0 847 248 
Q 594 497 594 1153 
L 594 3053 
L 172 3053 
L 172 3500 
L 594 3500 
L 594 4494 
L 1172 4494 
z
" transform="scale(0.015625)"/>
       <path id="DejaVuSans-69" d="M 603 3500 
L 1178 3500 
L 1178 0 
L 603 0 
L 603 3500 
z
M 603 4863 
L 1178 4863 
L 1178 4134 
L 603 4134 
L 603 4863 
z
" transform="scale(0.015625)"/>
       <path id="DejaVuSans-6f" d="M 1959 3097 
Q 1497 3097 1228 2736 
Q 959 2375 959 1747 
Q 959 1119 1226 758 
Q 1494 397 1959 397 
Q 2419 397 2687 759 
Q 2956 1122 2956 1747 
Q 2956 2369 2687 2733 
Q 2419 3097 1959 3097 
z
M 1959 3584 
Q 2709 3584 3137 3096 
Q 3566 2609 3566 1747 
Q 3566 888 3137 398 
Q 2709 -91 1959 -91 
Q 1206 -91 779 398 
Q 353 888 353 1747 
Q 353 2609 779 3096 
Q 1206 3584 1959 3584 
z
" transform="scale(0.015625)"/>
       <path id="DejaVuSans-6e" d="M 3513 2113 
L 3513 0 
L 2938 0 
L 2938 2094 
Q 2938 2591 2744 2837 
Q 2550 3084 2163 3084 
Q 1697 3084 1428 2787 
Q 1159 2491 1159 1978 
L 1159 0 
L 581 0 
L 581 3500 
L 1159 3500 
L 1159 2956 
Q 1366 3272 1645 3428 
Q 1925 3584 2291 3584 
Q 2894 3584 3203 3211 
Q 3513 2838 3513 2113 
z
" transform="scale(0.015625)"/>
       <path id="DejaVuSans-20" transform="scale(0.015625)"/>
       <path id="DejaVuSans-2f" d="M 1625 4666 
L 2156 4666 
L 531 -594 
L 0 -594 
L 1625 4666 
z
" transform="scale(0.015625)"/>
       <path id="DejaVuSans-67" d="M 2906 1791 
Q 2906 2416 2648 2759 
Q 2391 3103 1925 3103 
Q 1463 3103 1205 2759 
Q 947 2416 947 1791 
Q 947 1169 1205 825 
Q 1463 481 1925 481 
Q 2391 481 2648 825 
Q 2906 1169 2906 1791 
z
M 3481 434 
Q 3481 -459 3084 -895 
Q 2688 -1331 1869 -1331 
Q 1566 -1331 1297 -1286 
Q 1028 -1241 775 -1147 
L 775 -588 
Q 1028 -725 1275 -790 
Q 1522 -856 1778 -856 
Q 2344 -856 2625 -561 
Q 2906 -266 2906 331 
L 2906 616 
Q 2728 306 2450 153 
Q 2172 0 1784 0 
Q 1141 0 747 490 
Q 353 981 353 1791 
Q 353 2603 747 3093 
Q 1141 3584 1784 3584 
Q 2172 3584 2450 3431 
Q 2728 3278 2906 2969 
L 2906 3500 
L 3481 3500 
L 3481 434 
z
" transform="scale(0.015625)"/>
       <path id="DejaVuSans-64" d="M 2906 2969 
L 2906 4863 
L 3481 4863 
L 3481 0 
L 2906 0 
L 2906 525 
Q 2725 213 2448 61 
Q 2172 -91 1784 -91 
Q 1150 -91 751 415 
Q 353 922 353 1747 
Q 353 2572 751 3078 
Q 1150 3584 1784 3584 
Q 2172 3584 2448 3432 
Q 2725 3281 2906 2969 
z
M 947 1747 
Q 947 1113 1208 752 
Q 1469 391 1925 391 
Q 2381 391 2643 752 
Q 2906 1113 2906 1747 
Q 2906 2381 2643 2742 
Q 2381 3103 1925 3103 
Q 1469 3103 1208 2742 
Q 947 2381 947 1747 
z
" transform="scale(0.015625)"/>
       <path id="DejaVuSans-75" d="M 544 1381 
L 544 3500 
L 1119 3500 
L 1119 1403 
Q 1119 906 1312 657 
Q 1506 409 1894 409 
Q 2359 409 2629 706 
Q 2900 1003 2900 1516 
L 2900 3500 
L 3475 3500 
L 3475 0 
L 2900 0 
L 2900 538 
Q 2691 219 2414 64 
Q 2138 -91 1772 -91 
Q 1169 -91 856 284 
Q 544 659 544 1381 
z
M 1991 3584 
L 1991 3584 
z
" transform="scale(0.015625)"/>
       <path id="DejaVuSans-2c" d="M 750 794 
L 1409 794 
L 1409 256 
L 897 -744 
L 494 -744 
L 750 256 
L 750 794 
z
" transform="scale(0.015625)"/>
       <path id="DejaVuSans-Oblique-72" d="M 2853 2969 
Q 2766 3016 2653 3041 
Q 2541 3066 2413 3066 
Q 1953 3066 1609 2717 
Q 1266 2369 1153 1784 
L 800 0 
L 225 0 
L 909 3500 
L 1484 3500 
L 1375 2956 
Q 1603 3259 1920 3421 
Q 2238 3584 2597 3584 
Q 2691 3584 2781 3573 
Q 2872 3563 2963 3538 
L 2853 2969 
z
" transform="scale(0.015625)"/>
       <path id="DejaVuSans-Oblique-52" d="M 1613 4147 
L 1294 2491 
L 2106 2491 
Q 2584 2491 2879 2755 
Q 3175 3019 3175 3444 
Q 3175 3784 2976 3965 
Q 2778 4147 2406 4147 
L 1613 4147 
z
M 2772 2241 
Q 2972 2194 3105 2009 
Q 3238 1825 3413 1275 
L 3809 0 
L 3144 0 
L 2778 1197 
Q 2638 1659 2453 1815 
Q 2269 1972 1888 1972 
L 1191 1972 
L 806 0 
L 172 0 
L 1081 4666 
L 2503 4666 
Q 3150 4666 3495 4373 
Q 3841 4081 3841 3531 
Q 3841 3044 3547 2687 
Q 3253 2331 2772 2241 
z
" transform="scale(0.015625)"/>
      </defs>
      <use xlink:href="#DejaVuSans-73" transform="translate(0 0.015625)"/>
      <use xlink:href="#DejaVuSans-65" transform="translate(52.099609 0.015625)"/>
      <use xlink:href="#DejaVuSans-70" transform="translate(113.623047 0.015625)"/>
      <use xlink:href="#DejaVuSans-61" transform="translate(177.099609 0.015625)"/>
      <use xlink:href="#DejaVuSans-72" transform="translate(238.378906 0.015625)"/>
      <use xlink:href="#DejaVuSans-61" transform="translate(279.492188 0.015625)"/>
      <use xlink:href="#DejaVuSans-74" transform="translate(340.771484 0.015625)"/>
      <use xlink:href="#DejaVuSans-69" transform="translate(379.980469 0.015625)"/>
      <use xlink:href="#DejaVuSans-6f" transform="translate(407.763672 0.015625)"/>
      <use xlink:href="#DejaVuSans-6e" transform="translate(468.945312 0.015625)"/>
      <use xlink:href="#DejaVuSans-20" transform="translate(532.324219 0.015625)"/>
      <use xlink:href="#DejaVuSans-2f" transform="translate(564.111328 0.015625)"/>
      <use xlink:href="#DejaVuSans-20" transform="translate(597.802734 0.015625)"/>
      <use xlink:href="#DejaVuSans-74" transform="translate(629.589844 0.015625)"/>
      <use xlink:href="#DejaVuSans-61" transform="translate(668.798828 0.015625)"/>
      <use xlink:href="#DejaVuSans-72" transform="translate(730.078125 0.015625)"/>
      <use xlink:href="#DejaVuSans-67" transform="translate(771.191406 0.015625)"/>
      <use xlink:href="#DejaVuSans-65" transform="translate(834.667969 0.015625)"/>
      <use xlink:href="#DejaVuSans-74" transform="translate(896.191406 0.015625)"/>
      <use xlink:href="#DejaVuSans-20" transform="translate(935.400391 0.015625)"/>
      <use xlink:href="#DejaVuSans-72" transform="translate(967.1875 0.015625)"/>
      <use xlink:href="#DejaVuSans-61" transform="translate(1008.300781 0.015625)"/>
      <use xlink:href="#DejaVuSans-64" transform="translate(1069.580078 0.015625)"/>
      <use xlink:href="#DejaVuSans-69" transform="translate(1133.056641 0.015625)"/>
      <use xlink:href="#DejaVuSans-75" transform="translate(1160.839844 0.015625)"/>
      <use xlink:href="#DejaVuSans-73" transform="translate(1224.21875 0.015625)"/>
      <use xlink:href="#DejaVuSans-2c" transform="translate(1276.318359 0.015625)"/>
      <use xlink:href="#DejaVuSans-20" transform="translate(1308.105469 0.015625)"/>
      <use xlink:href="#DejaVuSans-Oblique-72" transform="translate(1339.892578 0.015625)"/>
      <use xlink:href="#DejaVuSans-2f" transform="translate(1381.005859 0.015625)"/>
      <use xlink:href="#DejaVuSans-Oblique-52" transform="translate(1412.947266 0.015625)"/>
     </g>
    </g>
   </g>
   <g id="matplotlib.axis_2">
    <g id="ytick_1">
     <g id="line2d_23">
      <path d="M 47.178365 290.643149 
L 616.19976 290.643149 
" clip-path="url(#pb9169fc0b7)" style="fill: none; stroke: #b0b0b0; stroke-opacity: 0.28; stroke-width: 0.8; stroke-linecap: square"/>
     </g>
     <g id="line2d_24">
      <defs>
       <path id="m3274c7f227" d="M 0 0 
L -3.5 0 
" style="stroke: #000000; stroke-width: 0.8"/>
      </defs>
      <g>
       <use xlink:href="#m3274c7f227" x="47.178365" y="290.643149" style="stroke: #000000; stroke-width: 0.8"/>
      </g>
     </g>
     <g id="text_4">
      <!-- $\mathdefault{10^{-3}}$ -->
      <g transform="translate(16.678365 294.442367) scale(0.1 -0.1)">
       <defs>
        <path id="DejaVuSans-2212" d="M 678 2272 
L 4684 2272 
L 4684 1741 
L 678 1741 
L 678 2272 
z
" transform="scale(0.015625)"/>
        <path id="DejaVuSans-33" d="M 2597 2516 
Q 3050 2419 3304 2112 
Q 3559 1806 3559 1356 
Q 3559 666 3084 287 
Q 2609 -91 1734 -91 
Q 1441 -91 1130 -33 
Q 819 25 488 141 
L 488 750 
Q 750 597 1062 519 
Q 1375 441 1716 441 
Q 2309 441 2620 675 
Q 2931 909 2931 1356 
Q 2931 1769 2642 2001 
Q 2353 2234 1838 2234 
L 1294 2234 
L 1294 2753 
L 1863 2753 
Q 2328 2753 2575 2939 
Q 2822 3125 2822 3475 
Q 2822 3834 2567 4026 
Q 2313 4219 1838 4219 
Q 1578 4219 1281 4162 
Q 984 4106 628 3988 
L 628 4550 
Q 988 4650 1302 4700 
Q 1616 4750 1894 4750 
Q 2613 4750 3031 4423 
Q 3450 4097 3450 3541 
Q 3450 3153 3228 2886 
Q 3006 2619 2597 2516 
z
" transform="scale(0.015625)"/>
       </defs>
       <use xlink:href="#DejaVuSans-31" transform="translate(0 0.765625)"/>
       <use xlink:href="#DejaVuSans-30" transform="translate(63.623047 0.765625)"/>
       <use xlink:href="#DejaVuSans-2212" transform="translate(128.203125 39.046875) scale(0.7)"/>
       <use xlink:href="#DejaVuSans-33" transform="translate(186.855469 39.046875) scale(0.7)"/>
      </g>
     </g>
    </g>
    <g id="ytick_2">
     <g id="line2d_25">
      <path d="M 47.178365 183.08087 
L 616.19976 183.08087 
" clip-path="url(#pb9169fc0b7)" style="fill: none; stroke: #b0b0b0; stroke-opacity: 0.28; stroke-width: 0.8; stroke-linecap: square"/>
     </g>
     <g id="line2d_26">
      <g>
       <use xlink:href="#m3274c7f227" x="47.178365" y="183.08087" style="stroke: #000000; stroke-width: 0.8"/>
      </g>
     </g>
     <g id="text_5">
      <!-- $\mathdefault{10^{-2}}$ -->
      <g transform="translate(16.678365 186.880089) scale(0.1 -0.1)">
       <defs>
        <path id="DejaVuSans-32" d="M 1228 531 
L 3431 531 
L 3431 0 
L 469 0 
L 469 531 
Q 828 903 1448 1529 
Q 2069 2156 2228 2338 
Q 2531 2678 2651 2914 
Q 2772 3150 2772 3378 
Q 2772 3750 2511 3984 
Q 2250 4219 1831 4219 
Q 1534 4219 1204 4116 
Q 875 4013 500 3803 
L 500 4441 
Q 881 4594 1212 4672 
Q 1544 4750 1819 4750 
Q 2544 4750 2975 4387 
Q 3406 4025 3406 3419 
Q 3406 3131 3298 2873 
Q 3191 2616 2906 2266 
Q 2828 2175 2409 1742 
Q 1991 1309 1228 531 
z
" transform="scale(0.015625)"/>
       </defs>
       <use xlink:href="#DejaVuSans-31" transform="translate(0 0.765625)"/>
       <use xlink:href="#DejaVuSans-30" transform="translate(63.623047 0.765625)"/>
       <use xlink:href="#DejaVuSans-2212" transform="translate(128.203125 39.046875) scale(0.7)"/>
       <use xlink:href="#DejaVuSans-32" transform="translate(186.855469 39.046875) scale(0.7)"/>
      </g>
     </g>
    </g>
    <g id="ytick_3">
     <g id="line2d_27">
      <path d="M 47.178365 75.518591 
L 616.19976 75.518591 
" clip-path="url(#pb9169fc0b7)" style="fill: none; stroke: #b0b0b0; stroke-opacity: 0.28; stroke-width: 0.8; stroke-linecap: square"/>
     </g>
     <g id="line2d_28">
      <g>
       <use xlink:href="#m3274c7f227" x="47.178365" y="75.518591" style="stroke: #000000; stroke-width: 0.8"/>
      </g>
     </g>
     <g id="text_6">
      <!-- $\mathdefault{10^{-1}}$ -->
      <g transform="translate(16.678365 79.31781) scale(0.1 -0.1)">
       <use xlink:href="#DejaVuSans-31" transform="translate(0 0.684375)"/>
       <use xlink:href="#DejaVuSans-30" transform="translate(63.623047 0.684375)"/>
       <use xlink:href="#DejaVuSans-2212" transform="translate(128.203125 38.965625) scale(0.7)"/>
       <use xlink:href="#DejaVuSans-31" transform="translate(186.855469 38.965625) scale(0.7)"/>
      </g>
     </g>
    </g>
    <g id="ytick_4">
     <g id="line2d_29">
      <path d="M 47.178365 323.022621 
L 616.19976 323.022621 
" clip-path="url(#pb9169fc0b7)" style="fill: none; stroke: #b0b0b0; stroke-opacity: 0.28; stroke-width: 0.8; stroke-linecap: square"/>
     </g>
     <g id="line2d_30">
      <defs>
       <path id="m72be3b5b87" d="M 0 0 
L -2 0 
" style="stroke: #000000; stroke-width: 0.6"/>
      </defs>
      <g>
       <use xlink:href="#m72be3b5b87" x="47.178365" y="323.022621" style="stroke: #000000; stroke-width: 0.6"/>
      </g>
     </g>
    </g>
    <g id="ytick_5">
     <g id="line2d_31">
      <path d="M 47.178365 314.505706 
L 616.19976 314.505706 
" clip-path="url(#pb9169fc0b7)" style="fill: none; stroke: #b0b0b0; stroke-opacity: 0.28; stroke-width: 0.8; stroke-linecap: square"/>
     </g>
     <g id="line2d_32">
      <g>
       <use xlink:href="#m72be3b5b87" x="47.178365" y="314.505706" style="stroke: #000000; stroke-width: 0.6"/>
      </g>
     </g>
    </g>
    <g id="ytick_6">
     <g id="line2d_33">
      <path d="M 47.178365 307.304756 
L 616.19976 307.304756 
" clip-path="url(#pb9169fc0b7)" style="fill: none; stroke: #b0b0b0; stroke-opacity: 0.28; stroke-width: 0.8; stroke-linecap: square"/>
     </g>
     <g id="line2d_34">
      <g>
       <use xlink:href="#m72be3b5b87" x="47.178365" y="307.304756" style="stroke: #000000; stroke-width: 0.6"/>
      </g>
     </g>
    </g>
    <g id="ytick_7">
     <g id="line2d_35">
      <path d="M 47.178365 301.06701 
L 616.19976 301.06701 
" clip-path="url(#pb9169fc0b7)" style="fill: none; stroke: #b0b0b0; stroke-opacity: 0.28; stroke-width: 0.8; stroke-linecap: square"/>
     </g>
     <g id="line2d_36">
      <g>
       <use xlink:href="#m72be3b5b87" x="47.178365" y="301.06701" style="stroke: #000000; stroke-width: 0.6"/>
      </g>
     </g>
    </g>
    <g id="ytick_8">
     <g id="line2d_37">
      <path d="M 47.178365 295.564929 
L 616.19976 295.564929 
" clip-path="url(#pb9169fc0b7)" style="fill: none; stroke: #b0b0b0; stroke-opacity: 0.28; stroke-width: 0.8; stroke-linecap: square"/>
     </g>
     <g id="line2d_38">
      <g>
       <use xlink:href="#m72be3b5b87" x="47.178365" y="295.564929" style="stroke: #000000; stroke-width: 0.6"/>
      </g>
     </g>
    </g>
    <g id="ytick_9">
     <g id="line2d_39">
      <path d="M 47.178365 258.263676 
L 616.19976 258.263676 
" clip-path="url(#pb9169fc0b7)" style="fill: none; stroke: #b0b0b0; stroke-opacity: 0.28; stroke-width: 0.8; stroke-linecap: square"/>
     </g>
     <g id="line2d_40">
      <g>
       <use xlink:href="#m72be3b5b87" x="47.178365" y="258.263676" style="stroke: #000000; stroke-width: 0.6"/>
      </g>
     </g>
    </g>
    <g id="ytick_10">
     <g id="line2d_41">
      <path d="M 47.178365 239.322899 
L 616.19976 239.322899 
" clip-path="url(#pb9169fc0b7)" style="fill: none; stroke: #b0b0b0; stroke-opacity: 0.28; stroke-width: 0.8; stroke-linecap: square"/>
     </g>
     <g id="line2d_42">
      <g>
       <use xlink:href="#m72be3b5b87" x="47.178365" y="239.322899" style="stroke: #000000; stroke-width: 0.6"/>
      </g>
     </g>
    </g>
    <g id="ytick_11">
     <g id="line2d_43">
      <path d="M 47.178365 225.884204 
L 616.19976 225.884204 
" clip-path="url(#pb9169fc0b7)" style="fill: none; stroke: #b0b0b0; stroke-opacity: 0.28; stroke-width: 0.8; stroke-linecap: square"/>
     </g>
     <g id="line2d_44">
      <g>
       <use xlink:href="#m72be3b5b87" x="47.178365" y="225.884204" style="stroke: #000000; stroke-width: 0.6"/>
      </g>
     </g>
    </g>
    <g id="ytick_12">
     <g id="line2d_45">
      <path d="M 47.178365 215.460342 
L 616.19976 215.460342 
" clip-path="url(#pb9169fc0b7)" style="fill: none; stroke: #b0b0b0; stroke-opacity: 0.28; stroke-width: 0.8; stroke-linecap: square"/>
     </g>
     <g id="line2d_46">
      <g>
       <use xlink:href="#m72be3b5b87" x="47.178365" y="215.460342" style="stroke: #000000; stroke-width: 0.6"/>
      </g>
     </g>
    </g>
    <g id="ytick_13">
     <g id="line2d_47">
      <path d="M 47.178365 206.943427 
L 616.19976 206.943427 
" clip-path="url(#pb9169fc0b7)" style="fill: none; stroke: #b0b0b0; stroke-opacity: 0.28; stroke-width: 0.8; stroke-linecap: square"/>
     </g>
     <g id="line2d_48">
      <g>
       <use xlink:href="#m72be3b5b87" x="47.178365" y="206.943427" style="stroke: #000000; stroke-width: 0.6"/>
      </g>
     </g>
    </g>
    <g id="ytick_14">
     <g id="line2d_49">
      <path d="M 47.178365 199.742478 
L 616.19976 199.742478 
" clip-path="url(#pb9169fc0b7)" style="fill: none; stroke: #b0b0b0; stroke-opacity: 0.28; stroke-width: 0.8; stroke-linecap: square"/>
     </g>
     <g id="line2d_50">
      <g>
       <use xlink:href="#m72be3b5b87" x="47.178365" y="199.742478" style="stroke: #000000; stroke-width: 0.6"/>
      </g>
     </g>
    </g>
    <g id="ytick_15">
     <g id="line2d_51">
      <path d="M 47.178365 193.504732 
L 616.19976 193.504732 
" clip-path="url(#pb9169fc0b7)" style="fill: none; stroke: #b0b0b0; stroke-opacity: 0.28; stroke-width: 0.8; stroke-linecap: square"/>
     </g>
     <g id="line2d_52">
      <g>
       <use xlink:href="#m72be3b5b87" x="47.178365" y="193.504732" style="stroke: #000000; stroke-width: 0.6"/>
      </g>
     </g>
    </g>
    <g id="ytick_16">
     <g id="line2d_53">
      <path d="M 47.178365 188.00265 
L 616.19976 188.00265 
" clip-path="url(#pb9169fc0b7)" style="fill: none; stroke: #b0b0b0; stroke-opacity: 0.28; stroke-width: 0.8; stroke-linecap: square"/>
     </g>
     <g id="line2d_54">
      <g>
       <use xlink:href="#m72be3b5b87" x="47.178365" y="188.00265" style="stroke: #000000; stroke-width: 0.6"/>
      </g>
     </g>
    </g>
    <g id="ytick_17">
     <g id="line2d_55">
      <path d="M 47.178365 150.701398 
L 616.19976 150.701398 
" clip-path="url(#pb9169fc0b7)" style="fill: none; stroke: #b0b0b0; stroke-opacity: 0.28; stroke-width: 0.8; stroke-linecap: square"/>
     </g>
     <g id="line2d_56">
      <g>
       <use xlink:href="#m72be3b5b87" x="47.178365" y="150.701398" style="stroke: #000000; stroke-width: 0.6"/>
      </g>
     </g>
    </g>
    <g id="ytick_18">
     <g id="line2d_57">
      <path d="M 47.178365 131.76062 
L 616.19976 131.76062 
" clip-path="url(#pb9169fc0b7)" style="fill: none; stroke: #b0b0b0; stroke-opacity: 0.28; stroke-width: 0.8; stroke-linecap: square"/>
     </g>
     <g id="line2d_58">
      <g>
       <use xlink:href="#m72be3b5b87" x="47.178365" y="131.76062" style="stroke: #000000; stroke-width: 0.6"/>
      </g>
     </g>
    </g>
    <g id="ytick_19">
     <g id="line2d_59">
      <path d="M 47.178365 118.321925 
L 616.19976 118.321925 
" clip-path="url(#pb9169fc0b7)" style="fill: none; stroke: #b0b0b0; stroke-opacity: 0.28; stroke-width: 0.8; stroke-linecap: square"/>
     </g>
     <g id="line2d_60">
      <g>
       <use xlink:href="#m72be3b5b87" x="47.178365" y="118.321925" style="stroke: #000000; stroke-width: 0.6"/>
      </g>
     </g>
    </g>
    <g id="ytick_20">
     <g id="line2d_61">
      <path d="M 47.178365 107.898063 
L 616.19976 107.898063 
" clip-path="url(#pb9169fc0b7)" style="fill: none; stroke: #b0b0b0; stroke-opacity: 0.28; stroke-width: 0.8; stroke-linecap: square"/>
     </g>
     <g id="line2d_62">
      <g>
       <use xlink:href="#m72be3b5b87" x="47.178365" y="107.898063" style="stroke: #000000; stroke-width: 0.6"/>
      </g>
     </g>
    </g>
    <g id="ytick_21">
     <g id="line2d_63">
      <path d="M 47.178365 99.381148 
L 616.19976 99.381148 
" clip-path="url(#pb9169fc0b7)" style="fill: none; stroke: #b0b0b0; stroke-opacity: 0.28; stroke-width: 0.8; stroke-linecap: square"/>
     </g>
     <g id="line2d_64">
      <g>
       <use xlink:href="#m72be3b5b87" x="47.178365" y="99.381148" style="stroke: #000000; stroke-width: 0.6"/>
      </g>
     </g>
    </g>
    <g id="ytick_22">
     <g id="line2d_65">
      <path d="M 47.178365 92.180199 
L 616.19976 92.180199 
" clip-path="url(#pb9169fc0b7)" style="fill: none; stroke: #b0b0b0; stroke-opacity: 0.28; stroke-width: 0.8; stroke-linecap: square"/>
     </g>
     <g id="line2d_66">
      <g>
       <use xlink:href="#m72be3b5b87" x="47.178365" y="92.180199" style="stroke: #000000; stroke-width: 0.6"/>
      </g>
     </g>
    </g>
    <g id="ytick_23">
     <g id="line2d_67">
      <path d="M 47.178365 85.942453 
L 616.19976 85.942453 
" clip-path="url(#pb9169fc0b7)" style="fill: none; stroke: #b0b0b0; stroke-opacity: 0.28; stroke-width: 0.8; stroke-linecap: square"/>
     </g>
     <g id="line2d_68">
      <g>
       <use xlink:href="#m72be3b5b87" x="47.178365" y="85.942453" style="stroke: #000000; stroke-width: 0.6"/>
      </g>
     </g>
    </g>
    <g id="ytick_24">
     <g id="line2d_69">
      <path d="M 47.178365 80.440371 
L 616.19976 80.440371 
" clip-path="url(#pb9169fc0b7)" style="fill: none; stroke: #b0b0b0; stroke-opacity: 0.28; stroke-width: 0.8; stroke-linecap: square"/>
     </g>
     <g id="line2d_70">
      <g>
       <use xlink:href="#m72be3b5b87" x="47.178365" y="80.440371" style="stroke: #000000; stroke-width: 0.6"/>
      </g>
     </g>
    </g>
    <g id="ytick_25">
     <g id="line2d_71">
      <path d="M 47.178365 43.139119 
L 616.19976 43.139119 
" clip-path="url(#pb9169fc0b7)" style="fill: none; stroke: #b0b0b0; stroke-opacity: 0.28; stroke-width: 0.8; stroke-linecap: square"/>
     </g>
     <g id="line2d_72">
      <g>
       <use xlink:href="#m72be3b5b87" x="47.178365" y="43.139119" style="stroke: #000000; stroke-width: 0.6"/>
      </g>
     </g>
    </g>
    <g id="ytick_26">
     <g id="line2d_73">
      <path d="M 47.178365 24.198342 
L 616.19976 24.198342 
" clip-path="url(#pb9169fc0b7)" style="fill: none; stroke: #b0b0b0; stroke-opacity: 0.28; stroke-width: 0.8; stroke-linecap: square"/>
     </g>
     <g id="line2d_74">
      <g>
       <use xlink:href="#m72be3b5b87" x="47.178365" y="24.198342" style="stroke: #000000; stroke-width: 0.6"/>
      </g>
     </g>
    </g>
    <g id="text_7">
     <!-- fraction of sky shadowed -->
     <g transform="translate(10.598678 234.852031) rotate(-90) scale(0.1 -0.1)">
      <defs>
       <path id="DejaVuSans-66" d="M 2375 4863 
L 2375 4384 
L 1825 4384 
Q 1516 4384 1395 4259 
Q 1275 4134 1275 3809 
L 1275 3500 
L 2222 3500 
L 2222 3053 
L 1275 3053 
L 1275 0 
L 697 0 
L 697 3053 
L 147 3053 
L 147 3500 
L 697 3500 
L 697 3744 
Q 697 4328 969 4595 
Q 1241 4863 1831 4863 
L 2375 4863 
z
" transform="scale(0.015625)"/>
       <path id="DejaVuSans-63" d="M 3122 3366 
L 3122 2828 
Q 2878 2963 2633 3030 
Q 2388 3097 2138 3097 
Q 1578 3097 1268 2742 
Q 959 2388 959 1747 
Q 959 1106 1268 751 
Q 1578 397 2138 397 
Q 2388 397 2633 464 
Q 2878 531 3122 666 
L 3122 134 
Q 2881 22 2623 -34 
Q 2366 -91 2075 -91 
Q 1284 -91 818 406 
Q 353 903 353 1747 
Q 353 2603 823 3093 
Q 1294 3584 2113 3584 
Q 2378 3584 2631 3529 
Q 2884 3475 3122 3366 
z
" transform="scale(0.015625)"/>
       <path id="DejaVuSans-6b" d="M 581 4863 
L 1159 4863 
L 1159 1991 
L 2875 3500 
L 3609 3500 
L 1753 1863 
L 3688 0 
L 2938 0 
L 1159 1709 
L 1159 0 
L 581 0 
L 581 4863 
z
" transform="scale(0.015625)"/>
       <path id="DejaVuSans-79" d="M 2059 -325 
Q 1816 -950 1584 -1140 
Q 1353 -1331 966 -1331 
L 506 -1331 
L 506 -850 
L 844 -850 
Q 1081 -850 1212 -737 
Q 1344 -625 1503 -206 
L 1606 56 
L 191 3500 
L 800 3500 
L 1894 763 
L 2988 3500 
L 3597 3500 
L 2059 -325 
z
" transform="scale(0.015625)"/>
       <path id="DejaVuSans-68" d="M 3513 2113 
L 3513 0 
L 2938 0 
L 2938 2094 
Q 2938 2591 2744 2837 
Q 2550 3084 2163 3084 
Q 1697 3084 1428 2787 
Q 1159 2491 1159 1978 
L 1159 0 
L 581 0 
L 581 4863 
L 1159 4863 
L 1159 2956 
Q 1366 3272 1645 3428 
Q 1925 3584 2291 3584 
Q 2894 3584 3203 3211 
Q 3513 2838 3513 2113 
z
" transform="scale(0.015625)"/>
       <path id="DejaVuSans-77" d="M 269 3500 
L 844 3500 
L 1563 769 
L 2278 3500 
L 2956 3500 
L 3675 769 
L 4391 3500 
L 4966 3500 
L 4050 0 
L 3372 0 
L 2619 2869 
L 1863 0 
L 1184 0 
L 269 3500 
z
" transform="scale(0.015625)"/>
      </defs>
      <use xlink:href="#DejaVuSans-66"/>
      <use xlink:href="#DejaVuSans-72" x="35.205078"/>
      <use xlink:href="#DejaVuSans-61" x="76.318359"/>
      <use xlink:href="#DejaVuSans-63" x="137.597656"/>
      <use xlink:href="#DejaVuSans-74" x="192.578125"/>
      <use xlink:href="#DejaVuSans-69" x="231.787109"/>
      <use xlink:href="#DejaVuSans-6f" x="259.570312"/>
      <use xlink:href="#DejaVuSans-6e" x="320.751953"/>
      <use xlink:href="#DejaVuSans-20" x="384.130859"/>
      <use xlink:href="#DejaVuSans-6f" x="415.917969"/>
      <use xlink:href="#DejaVuSans-66" x="477.099609"/>
      <use xlink:href="#DejaVuSans-20" x="512.304688"/>
      <use xlink:href="#DejaVuSans-73" x="544.091797"/>
      <use xlink:href="#DejaVuSans-6b" x="596.191406"/>
      <use xlink:href="#DejaVuSans-79" x="650.476562"/>
      <use xlink:href="#DejaVuSans-20" x="709.65625"/>
      <use xlink:href="#DejaVuSans-73" x="741.443359"/>
      <use xlink:href="#DejaVuSans-68" x="793.542969"/>
      <use xlink:href="#DejaVuSans-61" x="856.921875"/>
      <use xlink:href="#DejaVuSans-64" x="918.201172"/>
      <use xlink:href="#DejaVuSans-6f" x="981.677734"/>
      <use xlink:href="#DejaVuSans-77" x="1042.859375"/>
      <use xlink:href="#DejaVuSans-65" x="1124.646484"/>
      <use xlink:href="#DejaVuSans-64" x="1186.169922"/>
     </g>
    </g>
   </g>
   <g id="line2d_75">
    <path d="M 73.042974 32.141241 
L 79.963271 37.352551 
L 86.883567 42.267737 
L 95.533938 48.1156 
L 105.914383 54.819138 
L 118.024902 62.328459 
L 131.865496 70.614373 
L 147.436163 79.662575 
L 166.466979 90.438326 
L 188.957943 102.887993 
L 214.909056 116.985729 
L 246.050391 133.646555 
L 285.842097 154.671218 
L 337.744322 181.826858 
L 410.407437 219.575384 
L 529.782555 281.307875 
L 590.335151 312.569536 
L 590.335151 312.569536 
" clip-path="url(#pb9169fc0b7)" style="fill: none; stroke: #203864; stroke-width: 2.8; stroke-linecap: square"/>
   </g>
   <g id="line2d_76">
    <path d="M 73.042974 45.772853 
L 590.335151 312.598759 
L 590.335151 312.598759 
" clip-path="url(#pb9169fc0b7)" style="fill: none; stroke-dasharray: 8.88,3.84; stroke-dashoffset: 0; stroke: #2b7a78; stroke-width: 2.4"/>
   </g>
   <g id="patch_3">
    <path d="M 47.178365 326.621635 
L 47.178365 18.118365 
" style="fill: none; stroke: #000000; stroke-width: 0.8; stroke-linejoin: miter; stroke-linecap: square"/>
   </g>
   <g id="patch_4">
    <path d="M 616.19976 326.621635 
L 616.19976 18.118365 
" style="fill: none; stroke: #000000; stroke-width: 0.8; stroke-linejoin: miter; stroke-linecap: square"/>
   </g>
   <g id="patch_5">
    <path d="M 47.178365 326.621635 
L 616.19976 326.621635 
" style="fill: none; stroke: #000000; stroke-width: 0.8; stroke-linejoin: miter; stroke-linecap: square"/>
   </g>
   <g id="patch_6">
    <path d="M 47.178365 18.118365 
L 616.19976 18.118365 
" style="fill: none; stroke: #000000; stroke-width: 0.8; stroke-linejoin: miter; stroke-linecap: square"/>
   </g>
   <g id="PathCollection_1">
    <defs>
     <path id="m2e6501986b" d="M 0 3.24037 
C 0.859356 3.24037 1.683631 2.898944 2.291288 2.291288 
C 2.898944 1.683631 3.24037 0.859356 3.24037 0 
C 3.24037 -0.859356 2.898944 -1.683631 2.291288 -2.291288 
C 1.683631 -2.898944 0.859356 -3.24037 0 -3.24037 
C -0.859356 -3.24037 -1.683631 -2.898944 -2.291288 -2.291288 
C -2.898944 -1.683631 -3.24037 -0.859356 -3.24037 0 
C -3.24037 0.859356 -2.898944 1.683631 -2.291288 2.291288 
C -1.683631 2.898944 -0.859356 3.24037 0 3.24037 
z
" style="stroke: #c44536"/>
    </defs>
    <g clip-path="url(#pb9169fc0b7)">
     <use xlink:href="#m2e6501986b" x="80.751652" y="38.365891" style="fill: #c44536; stroke: #c44536"/>
     <use xlink:href="#m2e6501986b" x="108.672439" y="57.131263" style="fill: #c44536; stroke: #c44536"/>
     <use xlink:href="#m2e6501986b" x="154.192166" y="83.649383" style="fill: #c44536; stroke: #c44536"/>
     <use xlink:href="#m2e6501986b" x="213.692988" y="116.219192" style="fill: #c44536; stroke: #c44536"/>
     <use xlink:href="#m2e6501986b" x="274.637058" y="149.396246" style="fill: #c44536; stroke: #c44536"/>
     <use xlink:href="#m2e6501986b" x="339.240376" y="181.136567" style="fill: #c44536; stroke: #c44536"/>
     <use xlink:href="#m2e6501986b" x="424.370532" y="226.177081" style="fill: #c44536; stroke: #c44536"/>
     <use xlink:href="#m2e6501986b" x="497.811046" y="256.543959" style="fill: #c44536; stroke: #c44536"/>
     <use xlink:href="#m2e6501986b" x="571.25156" y="306.20556" style="fill: #c44536; stroke: #c44536"/>
    </g>
   </g>
   <g id="text_8">
    <!-- Pure shielding geometry really does want an inverse-square law -->
    <g transform="translate(139.025312 12.118365) scale(0.12 -0.12)">
     <defs>
      <path id="DejaVuSans-50" d="M 1259 4147 
L 1259 2394 
L 2053 2394 
Q 2494 2394 2734 2622 
Q 2975 2850 2975 3272 
Q 2975 3691 2734 3919 
Q 2494 4147 2053 4147 
L 1259 4147 
z
M 628 4666 
L 2053 4666 
Q 2838 4666 3239 4311 
Q 3641 3956 3641 3272 
Q 3641 2581 3239 2228 
Q 2838 1875 2053 1875 
L 1259 1875 
L 1259 0 
L 628 0 
L 628 4666 
z
" transform="scale(0.015625)"/>
      <path id="DejaVuSans-6c" d="M 603 4863 
L 1178 4863 
L 1178 0 
L 603 0 
L 603 4863 
z
" transform="scale(0.015625)"/>
      <path id="DejaVuSans-6d" d="M 3328 2828 
Q 3544 3216 3844 3400 
Q 4144 3584 4550 3584 
Q 5097 3584 5394 3201 
Q 5691 2819 5691 2113 
L 5691 0 
L 5113 0 
L 5113 2094 
Q 5113 2597 4934 2840 
Q 4756 3084 4391 3084 
Q 3944 3084 3684 2787 
Q 3425 2491 3425 1978 
L 3425 0 
L 2847 0 
L 2847 2094 
Q 2847 2600 2669 2842 
Q 2491 3084 2119 3084 
Q 1678 3084 1418 2786 
Q 1159 2488 1159 1978 
L 1159 0 
L 581 0 
L 581 3500 
L 1159 3500 
L 1159 2956 
Q 1356 3278 1631 3431 
Q 1906 3584 2284 3584 
Q 2666 3584 2933 3390 
Q 3200 3197 3328 2828 
z
" transform="scale(0.015625)"/>
      <path id="DejaVuSans-76" d="M 191 3500 
L 800 3500 
L 1894 563 
L 2988 3500 
L 3597 3500 
L 2284 0 
L 1503 0 
L 191 3500 
z
" transform="scale(0.015625)"/>
      <path id="DejaVuSans-2d" d="M 313 2009 
L 1997 2009 
L 1997 1497 
L 313 1497 
L 313 2009 
z
" transform="scale(0.015625)"/>
      <path id="DejaVuSans-71" d="M 947 1747 
Q 947 1113 1208 752 
Q 1469 391 1925 391 
Q 2381 391 2643 752 
Q 2906 1113 2906 1747 
Q 2906 2381 2643 2742 
Q 2381 3103 1925 3103 
Q 1469 3103 1208 2742 
Q 947 2381 947 1747 
z
M 2906 525 
Q 2725 213 2448 61 
Q 2172 -91 1784 -91 
Q 1150 -91 751 415 
Q 353 922 353 1747 
Q 353 2572 751 3078 
Q 1150 3584 1784 3584 
Q 2172 3584 2448 3432 
Q 2725 3281 2906 2969 
L 2906 3500 
L 3481 3500 
L 3481 -1331 
L 2906 -1331 
L 2906 525 
z
" transform="scale(0.015625)"/>
     </defs>
     <use xlink:href="#DejaVuSans-50"/>
     <use xlink:href="#DejaVuSans-75" x="58.552734"/>
     <use xlink:href="#DejaVuSans-72" x="121.931641"/>
     <use xlink:href="#DejaVuSans-65" x="160.794922"/>
     <use xlink:href="#DejaVuSans-20" x="222.318359"/>
     <use xlink:href="#DejaVuSans-73" x="254.105469"/>
     <use xlink:href="#DejaVuSans-68" x="306.205078"/>
     <use xlink:href="#DejaVuSans-69" x="369.583984"/>
     <use xlink:href="#DejaVuSans-65" x="397.367188"/>
     <use xlink:href="#DejaVuSans-6c" x="458.890625"/>
     <use xlink:href="#DejaVuSans-64" x="486.673828"/>
     <use xlink:href="#DejaVuSans-69" x="550.150391"/>
     <use xlink:href="#DejaVuSans-6e" x="577.933594"/>
     <use xlink:href="#DejaVuSans-67" x="641.3125"/>
     <use xlink:href="#DejaVuSans-20" x="704.789062"/>
     <use xlink:href="#DejaVuSans-67" x="736.576172"/>
     <use xlink:href="#DejaVuSans-65" x="800.052734"/>
     <use xlink:href="#DejaVuSans-6f" x="861.576172"/>
     <use xlink:href="#DejaVuSans-6d" x="922.757812"/>
     <use xlink:href="#DejaVuSans-65" x="1020.169922"/>
     <use xlink:href="#DejaVuSans-74" x="1081.693359"/>
     <use xlink:href="#DejaVuSans-72" x="1120.902344"/>
     <use xlink:href="#DejaVuSans-79" x="1162.015625"/>
     <use xlink:href="#DejaVuSans-20" x="1221.195312"/>
     <use xlink:href="#DejaVuSans-72" x="1252.982422"/>
     <use xlink:href="#DejaVuSans-65" x="1291.845703"/>
     <use xlink:href="#DejaVuSans-61" x="1353.369141"/>
     <use xlink:href="#DejaVuSans-6c" x="1414.648438"/>
     <use xlink:href="#DejaVuSans-6c" x="1442.431641"/>
     <use xlink:href="#DejaVuSans-79" x="1470.214844"/>
     <use xlink:href="#DejaVuSans-20" x="1529.394531"/>
     <use xlink:href="#DejaVuSans-64" x="1561.181641"/>
     <use xlink:href="#DejaVuSans-6f" x="1624.658203"/>
     <use xlink:href="#DejaVuSans-65" x="1685.839844"/>
     <use xlink:href="#DejaVuSans-73" x="1747.363281"/>
     <use xlink:href="#DejaVuSans-20" x="1799.462891"/>
     <use xlink:href="#DejaVuSans-77" x="1831.25"/>
     <use xlink:href="#DejaVuSans-61" x="1913.037109"/>
     <use xlink:href="#DejaVuSans-6e" x="1974.316406"/>
     <use xlink:href="#DejaVuSans-74" x="2037.695312"/>
     <use xlink:href="#DejaVuSans-20" x="2076.904297"/>
     <use xlink:href="#DejaVuSans-61" x="2108.691406"/>
     <use xlink:href="#DejaVuSans-6e" x="2169.970703"/>
     <use xlink:href="#DejaVuSans-20" x="2233.349609"/>
     <use xlink:href="#DejaVuSans-69" x="2265.136719"/>
     <use xlink:href="#DejaVuSans-6e" x="2292.919922"/>
     <use xlink:href="#DejaVuSans-76" x="2356.298828"/>
     <use xlink:href="#DejaVuSans-65" x="2415.478516"/>
     <use xlink:href="#DejaVuSans-72" x="2477.001953"/>
     <use xlink:href="#DejaVuSans-73" x="2518.115234"/>
     <use xlink:href="#DejaVuSans-65" x="2570.214844"/>
     <use xlink:href="#DejaVuSans-2d" x="2631.738281"/>
     <use xlink:href="#DejaVuSans-73" x="2667.822266"/>
     <use xlink:href="#DejaVuSans-71" x="2719.921875"/>
     <use xlink:href="#DejaVuSans-75" x="2783.398438"/>
     <use xlink:href="#DejaVuSans-61" x="2846.777344"/>
     <use xlink:href="#DejaVuSans-72" x="2908.056641"/>
     <use xlink:href="#DejaVuSans-65" x="2946.919922"/>
     <use xlink:href="#DejaVuSans-20" x="3008.443359"/>
     <use xlink:href="#DejaVuSans-6c" x="3040.230469"/>
     <use xlink:href="#DejaVuSans-61" x="3068.013672"/>
     <use xlink:href="#DejaVuSans-77" x="3129.292969"/>
    </g>
   </g>
   <g id="legend_1">
    <g id="line2d_77">
     <path d="M 452.49351 31.216803 
L 462.49351 31.216803 
L 472.49351 31.216803 
" style="fill: none; stroke: #203864; stroke-width: 2.8; stroke-linecap: square"/>
    </g>
    <g id="text_9">
     <!-- exact solid-angle shadow -->
     <g transform="translate(480.49351 34.716803) scale(0.1 -0.1)">
      <defs>
       <path id="DejaVuSans-78" d="M 3513 3500 
L 2247 1797 
L 3578 0 
L 2900 0 
L 1881 1375 
L 863 0 
L 184 0 
L 1544 1831 
L 300 3500 
L 978 3500 
L 1906 2253 
L 2834 3500 
L 3513 3500 
z
" transform="scale(0.015625)"/>
      </defs>
      <use xlink:href="#DejaVuSans-65"/>
      <use xlink:href="#DejaVuSans-78" x="59.773438"/>
      <use xlink:href="#DejaVuSans-61" x="118.953125"/>
      <use xlink:href="#DejaVuSans-63" x="180.232422"/>
      <use xlink:href="#DejaVuSans-74" x="235.212891"/>
      <use xlink:href="#DejaVuSans-20" x="274.421875"/>
      <use xlink:href="#DejaVuSans-73" x="306.208984"/>
      <use xlink:href="#DejaVuSans-6f" x="358.308594"/>
      <use xlink:href="#DejaVuSans-6c" x="419.490234"/>
      <use xlink:href="#DejaVuSans-69" x="447.273438"/>
      <use xlink:href="#DejaVuSans-64" x="475.056641"/>
      <use xlink:href="#DejaVuSans-2d" x="538.533203"/>
      <use xlink:href="#DejaVuSans-61" x="574.617188"/>
      <use xlink:href="#DejaVuSans-6e" x="635.896484"/>
      <use xlink:href="#DejaVuSans-67" x="699.275391"/>
      <use xlink:href="#DejaVuSans-6c" x="762.751953"/>
      <use xlink:href="#DejaVuSans-65" x="790.535156"/>
      <use xlink:href="#DejaVuSans-20" x="852.058594"/>
      <use xlink:href="#DejaVuSans-73" x="883.845703"/>
      <use xlink:href="#DejaVuSans-68" x="935.945312"/>
      <use xlink:href="#DejaVuSans-61" x="999.324219"/>
      <use xlink:href="#DejaVuSans-64" x="1060.603516"/>
      <use xlink:href="#DejaVuSans-6f" x="1124.080078"/>
      <use xlink:href="#DejaVuSans-77" x="1185.261719"/>
     </g>
    </g>
    <g id="line2d_78">
     <path d="M 452.49351 46.716803 
L 462.49351 46.716803 
L 472.49351 46.716803 
" style="fill: none; stroke-dasharray: 8.88,3.84; stroke-dashoffset: 0; stroke: #2b7a78; stroke-width: 2.4"/>
    </g>
    <g id="text_10">
     <!-- far-field $R^2/(4r^2)$ -->
     <g transform="translate(480.49351 50.216803) scale(0.1 -0.1)">
      <defs>
       <path id="DejaVuSans-28" d="M 1984 4856 
Q 1566 4138 1362 3434 
Q 1159 2731 1159 2009 
Q 1159 1288 1364 580 
Q 1569 -128 1984 -844 
L 1484 -844 
Q 1016 -109 783 600 
Q 550 1309 550 2009 
Q 550 2706 781 3412 
Q 1013 4119 1484 4856 
L 1984 4856 
z
" transform="scale(0.015625)"/>
       <path id="DejaVuSans-34" d="M 2419 4116 
L 825 1625 
L 2419 1625 
L 2419 4116 
z
M 2253 4666 
L 3047 4666 
L 3047 1625 
L 3713 1625 
L 3713 1100 
L 3047 1100 
L 3047 0 
L 2419 0 
L 2419 1100 
L 313 1100 
L 313 1709 
L 2253 4666 
z
" transform="scale(0.015625)"/>
       <path id="DejaVuSans-29" d="M 513 4856 
L 1013 4856 
Q 1481 4119 1714 3412 
Q 1947 2706 1947 2009 
Q 1947 1309 1714 600 
Q 1481 -109 1013 -844 
L 513 -844 
Q 928 -128 1133 580 
Q 1338 1288 1338 2009 
Q 1338 2731 1133 3434 
Q 928 4138 513 4856 
z
" transform="scale(0.015625)"/>
      </defs>
      <use xlink:href="#DejaVuSans-66" transform="translate(0 0.765625)"/>
      <use xlink:href="#DejaVuSans-61" transform="translate(35.205078 0.765625)"/>
      <use xlink:href="#DejaVuSans-72" transform="translate(96.484375 0.765625)"/>
      <use xlink:href="#DejaVuSans-2d" transform="translate(137.597656 0.765625)"/>
      <use xlink:href="#DejaVuSans-66" transform="translate(173.681641 0.765625)"/>
      <use xlink:href="#DejaVuSans-69" transform="translate(208.886719 0.765625)"/>
      <use xlink:href="#DejaVuSans-65" transform="translate(236.669922 0.765625)"/>
      <use xlink:href="#DejaVuSans-6c" transform="translate(298.193359 0.765625)"/>
      <use xlink:href="#DejaVuSans-64" transform="translate(325.976562 0.765625)"/>
      <use xlink:href="#DejaVuSans-20" transform="translate(389.453125 0.765625)"/>
      <use xlink:href="#DejaVuSans-Oblique-52" transform="translate(421.240234 0.765625)"/>
      <use xlink:href="#DejaVuSans-32" transform="translate(497.739427 39.046875) scale(0.7)"/>
      <use xlink:href="#DejaVuSans-2f" transform="translate(545.009935 0.765625)"/>
      <use xlink:href="#DejaVuSans-28" transform="translate(578.701341 0.765625)"/>
      <use xlink:href="#DejaVuSans-34" transform="translate(617.715013 0.765625)"/>
      <use xlink:href="#DejaVuSans-Oblique-72" transform="translate(681.33806 0.765625)"/>
      <use xlink:href="#DejaVuSans-32" transform="translate(727.101237 39.046875) scale(0.7)"/>
      <use xlink:href="#DejaVuSans-29" transform="translate(774.371745 0.765625)"/>
     </g>
    </g>
    <g id="PathCollection_2">
     <g>
      <use xlink:href="#m2e6501986b" x="462.49351" y="62.269928" style="fill: #c44536; stroke: #c44536"/>
     </g>
    </g>
    <g id="text_11">
     <!-- Monte Carlo rays -->
     <g transform="translate(480.49351 64.894928) scale(0.1 -0.1)">
      <defs>
       <path id="DejaVuSans-4d" d="M 628 4666 
L 1569 4666 
L 2759 1491 
L 3956 4666 
L 4897 4666 
L 4897 0 
L 4281 0 
L 4281 4097 
L 3078 897 
L 2444 897 
L 1241 4097 
L 1241 0 
L 628 0 
L 628 4666 
z
" transform="scale(0.015625)"/>
       <path id="DejaVuSans-43" d="M 4122 4306 
L 4122 3641 
Q 3803 3938 3442 4084 
Q 3081 4231 2675 4231 
Q 1875 4231 1450 3742 
Q 1025 3253 1025 2328 
Q 1025 1406 1450 917 
Q 1875 428 2675 428 
Q 3081 428 3442 575 
Q 3803 722 4122 1019 
L 4122 359 
Q 3791 134 3420 21 
Q 3050 -91 2638 -91 
Q 1578 -91 968 557 
Q 359 1206 359 2328 
Q 359 3453 968 4101 
Q 1578 4750 2638 4750 
Q 3056 4750 3426 4639 
Q 3797 4528 4122 4306 
z
" transform="scale(0.015625)"/>
      </defs>
      <use xlink:href="#DejaVuSans-4d"/>
      <use xlink:href="#DejaVuSans-6f" x="86.279297"/>
      <use xlink:href="#DejaVuSans-6e" x="147.460938"/>
      <use xlink:href="#DejaVuSans-74" x="210.839844"/>
      <use xlink:href="#DejaVuSans-65" x="250.048828"/>
      <use xlink:href="#DejaVuSans-20" x="311.572266"/>
      <use xlink:href="#DejaVuSans-43" x="343.359375"/>
      <use xlink:href="#DejaVuSans-61" x="413.183594"/>
      <use xlink:href="#DejaVuSans-72" x="474.462891"/>
      <use xlink:href="#DejaVuSans-6c" x="515.576172"/>
      <use xlink:href="#DejaVuSans-6f" x="543.359375"/>
      <use xlink:href="#DejaVuSans-20" x="604.541016"/>
      <use xlink:href="#DejaVuSans-72" x="636.328125"/>
      <use xlink:href="#DejaVuSans-61" x="677.441406"/>
      <use xlink:href="#DejaVuSans-79" x="738.720703"/>
      <use xlink:href="#DejaVuSans-73" x="797.900391"/>
     </g>
    </g>
   </g>
  </g>
 </g>
 <defs>
  <clipPath id="pb9169fc0b7">
   <rect x="47.178365" y="18.118365" width="569.021395" height="308.50327"/>
  </clipPath>
 </defs>
</svg>
